<svg width="32" height="32" viewBox="0 0 32 32" fill="none" xmlns="http://www.w3.org/2000/svg">
  <!-- Background circle with gradient -->
  <circle cx="16" cy="16" r="16" fill="url(#gradient)"/>
  
  <!-- Link chain icon representing URL shortening -->
  <g transform="translate(8, 10)">
    <!-- First link -->
    <path d="M4 2C4 0.895431 4.89543 0 6 0H10C11.1046 0 12 0.895431 12 2V4C12 5.10457 11.1046 6 10 6H9V8H10C12.2091 8 14 6.20914 14 4V2C14 -0.209139 12.2091 -2 10 -2H6C3.79086 -2 2 -0.209139 2 2V4C2 6.20914 3.79086 8 6 8H7V6H6C4.89543 6 4 5.10457 4 4V2Z" fill="white"/>
    
    <!-- Second link -->
    <path d="M4 10C4 8.89543 4.89543 8 6 8H10C11.1046 8 12 8.89543 12 10V12C12 13.1046 11.1046 14 10 14H9V16H10C12.2091 16 14 14.2091 14 12V10C14 7.79086 12.2091 6 10 6H6C3.79086 6 2 7.79086 2 10V12C2 14.2091 3.79086 16 6 16H7V14H6C4.89543 14 4 13.1046 4 12V10Z" fill="white"/>
  </g>
  
  <!-- Gradient definition -->
  <defs>
    <linearGradient id="gradient" x1="0" y1="0" x2="32" y2="32" gradientUnits="userSpaceOnUse">
      <stop offset="0%" stop-color="#6366F1"/>
      <stop offset="100%" stop-color="#8B5CF6"/>
    </linearGradient>
  </defs>
</svg>

